<svg width="130" height="25" viewBox="0 0 130 25" fill="none" xmlns="http://www.w3.org/2000/svg">
<g id="Group 237689">
<g id="Group 1974">
<g id="Group">
<g id="Group_2">
<g id="Group_3">
<path id="Vector" d="M33.4188 19.9959C37.3739 19.9959 40.16 17.9616 40.16 14.63C40.16 10.9931 37.0289 10.0517 34.0824 9.16085C31.2699 8.34805 30.5537 7.76256 30.5537 6.66964C30.5537 5.6525 31.4568 4.89021 32.9948 4.89021C34.8777 4.89021 35.8862 5.82929 36.5498 7.17936L39.6282 5.47341C38.3825 2.9822 36.0467 1.48059 32.9948 1.48059C29.811 1.48059 26.8908 3.41386 26.8908 6.77067C26.8908 10.1527 29.6505 11.2985 32.4917 12.086C35.2514 12.8506 36.4971 13.358 36.4971 14.6805C36.4971 15.6724 35.7281 16.5633 33.5266 16.5633C31.2172 16.5633 29.9164 15.4956 29.2528 13.8425L26.1218 15.5967C27.1303 18.2417 29.6242 19.9959 33.4188 19.9959Z" fill="#F7F8F8"/>
</g>
</g>
</g>
<g id="Group_4">
<g id="Group_5">
<g id="Group_6">
<path id="Vector_2" d="M51.3605 19.996C54.7838 19.996 57.7831 18.3429 59.3474 15.7989L56.19 14.0447C55.3156 15.5968 53.483 16.5635 51.3605 16.5635C47.7264 16.5635 45.3379 14.1457 45.3379 10.7384C45.3379 7.30583 47.7264 4.89039 51.3605 4.89039C53.483 4.89039 55.2892 5.85703 56.19 7.43211L59.3474 5.67794C57.7567 3.13392 54.7574 1.48077 51.3605 1.48077C45.7356 1.48077 41.7038 5.5264 41.7038 10.7384C41.7038 15.9275 45.7356 19.996 51.3605 19.996Z" fill="#F7F8F8"/>
</g>
</g>
</g>
<g id="Group_7">
<g id="Group_8">
<g id="Group_9">
<path id="Vector_3" d="M61.815 1.83603V19.6395H65.4779V1.83603H61.815Z" fill="#F7F8F8"/>
</g>
</g>
</g>
<g id="Group_10">
<g id="Group_11">
<g id="Group_12">
<path id="Vector_4" d="M87.1068 1.83755H83.3386L78.0323 10.2571L72.6997 1.83755H68.9315V19.641H72.5943V8.11952L77.8215 16.36H78.2455L83.4727 8.09426V19.641H87.1068V1.83755Z" fill="#F7F8F8"/>
</g>
</g>
</g>
<g id="Group_13">
<g id="Group_14">
<g id="Group_15">
<path id="Vector_5" d="M90.5504 1.83606V19.6395H94.2133V1.83606H90.5504Z" fill="#F7F8F8"/>
</g>
</g>
</g>
<g id="Group_16">
<g id="Group_17">
<g id="Group_18">
<path id="Vector_6" d="M106.475 19.996C109.898 19.996 112.898 18.3429 114.462 15.7989L111.305 14.0447C110.43 15.5968 108.598 16.5635 106.475 16.5635C102.841 16.5635 100.453 14.1457 100.453 10.7384C100.453 7.30583 102.841 4.89039 106.475 4.89039C108.598 4.89039 110.404 5.85703 111.305 7.43211L114.462 5.67794C112.871 3.13392 109.872 1.48077 106.475 1.48077C100.85 1.48077 96.8185 5.5264 96.8185 10.7384C96.8185 15.9275 100.85 19.996 106.475 19.996Z" fill="#F7F8F8"/>
</g>
</g>
</g>
<g id="Group_19">
<g id="Group_20">
<g id="Group_21">
<path id="Vector_7" d="M123.263 19.996C127.218 19.996 130.004 17.9618 130.004 14.6302C130.004 10.9933 126.873 10.0519 123.926 9.16103C121.114 8.34823 120.397 7.76274 120.397 6.66983C120.397 5.65268 121.301 4.89039 122.838 4.89039C124.721 4.89039 125.73 5.82948 126.394 7.17955L129.472 5.47359C128.226 2.98238 125.89 1.48077 122.838 1.48077C119.655 1.48077 116.735 3.41404 116.735 6.77085C116.735 10.1529 119.494 11.2986 122.335 12.0862C125.095 12.8508 126.341 13.3582 126.341 14.6807C126.341 15.6726 125.572 16.5635 123.37 16.5635C121.061 16.5635 119.76 15.4958 119.097 13.8427L115.966 15.5968C116.974 18.2419 119.468 19.996 123.263 19.996Z" fill="#F7F8F8"/>
</g>
</g>
</g>
</g>
<g id="Group 1975">
<path id="Rectangle 213" d="M4.65199 2.90696C4.65199 1.30149 5.95348 0 7.55895 0H16.2798C17.8853 0 19.1868 1.30149 19.1868 2.90696V2.90696C19.1868 4.51243 17.8853 5.81392 16.2798 5.81392H7.55895C5.95348 5.81392 4.65199 4.51243 4.65199 2.90696V2.90696Z" fill="#F7F8F8"/>
<rect id="Rectangle 214" y="6.39597" width="14.5348" height="5.81392" rx="2.90696" fill="#F7F8F8"/>
<rect id="Rectangle 215" x="6.97798" y="12.7904" width="14.5348" height="5.81392" rx="2.90696" fill="#F7F8F8"/>
<rect id="Rectangle 216" y="19.1861" width="14.5348" height="5.81392" rx="2.90696" fill="#F7F8F8"/>
<ellipse id="Ellipse 459" cx="16.8632" cy="9.3021" rx="1.16279" ry="1.16279" fill="#F7F8F8"/>
<ellipse id="Ellipse 460" cx="4.65178" cy="15.6974" rx="1.16279" ry="1.16279" fill="#F7F8F8"/>
</g>
</g>
</svg>
